Coordinates
version=1
nRows=8
nColumns=40
inDegrees=yes

Units are S.I. units (second, meters, Newtons, ...)
If the header above contains a line with 'inDegrees', this indicates whether rotational values are in degrees (yes) or radians (no).

endheader
time	pelvis_tilt	pelvis_list	pelvis_rotation	pelvis_tx	pelvis_ty	pelvis_tz	hip_flexion_r	hip_adduction_r	hip_rotation_r	knee_angle_r	knee_angle_r_beta	ankle_angle_r	subtalar_angle_r	mtp_angle_r	hip_flexion_l	hip_adduction_l	hip_rotation_l	knee_angle_l	knee_angle_l_beta	ankle_angle_l	subtalar_angle_l	mtp_angle_l	lumbar_extension	lumbar_bending	lumbar_rotation	arm_flex_r	arm_add_r	arm_rot_r	elbow_flex_r	pro_sup_r	wrist_flex_r	wrist_dev_r	arm_flex_l	arm_add_l	arm_rot_l	elbow_flex_l	pro_sup_l	wrist_flex_l	wrist_dev_l
     11.58333333	    -12.14988662	     -2.53641685	      2.16697866	     -0.36442358	      1.14466901	      0.04970841	     64.64416909	     -6.12176330	     -3.94967203	     62.03413315	      1.08269987	    -10.62947855	     -8.53116312	      0.00000000	     71.46827236	    -11.01055686	      7.74076674	    104.75052303	      1.82824152	      0.65683386	      1.50037350	      0.00000000	    -44.70927660	      2.50019392	      5.64568032	     89.84556221	    -13.84550194	     33.15298703	     20.79128399	     87.46117475	      0.00000000	      0.00000000	     88.26875837	     -2.01906153	     35.17112025	     18.04122822	     86.46895788	      0.00000000	      0.00000000
     11.59166667	    -11.94849592	     -2.26879019	      2.00949624	     -0.36390273	      1.14510705	      0.04966474	     63.18985670	     -6.09766581	     -3.89770358	     60.48110224	      1.05559437	    -11.32871594	     -8.25944063	      0.00000000	     72.28993902	    -11.03588152	      7.66566500	    106.09850852	      1.85176831	      1.05910833	      1.65242445	      0.00000000	    -44.92997919	      2.12863068	      5.52219530	     89.84580364	    -13.80902552	     33.26860762	     20.68243201	     87.44369340	      0.00000000	      0.00000000	     88.35158868	     -2.10491366	     35.28555751	     18.08887304	     86.60919882	      0.00000000	      0.00000000
     11.60000000	    -11.40164569	     -2.42264627	      1.92857029	     -0.36294723	      1.14603890	      0.04990970	     61.28653130	     -5.81121081	     -4.22696789	     58.97127638	      1.02924294	    -11.89001841	     -8.25909459	      0.00000000	     72.75413924	    -11.21706029	      8.11376798	    107.37275875	      1.87400817	      1.75889746	      2.20463964	      0.00000000	    -45.49008351	      2.11655063	      5.73564226	     89.84396008	    -13.90785052	     33.39107442	     20.70095817	     87.36809076	      0.00000000	      0.00000000	     88.36614585	     -2.04936685	     35.41262107	     18.04665805	     86.74740455	      0.00000000	      0.00000000
     11.60833333	    -11.40709339	     -2.02456716	      1.92534263	     -0.36279669	      1.14619436	      0.04962506	     60.10150201	     -5.96334830	     -4.05136548	     57.54556407	      1.00435956	    -12.23304497	     -8.23333748	      0.00000000	     73.72778836	    -10.98321054	      7.90571588	    108.48625494	      1.89344234	      2.01702284	      2.28236900	      0.00000000	    -45.49979016	      1.73989306	      5.43505358	     89.84063551	    -13.90559270	     33.39466523	     20.57984445	     87.42700523	      0.00000000	      0.00000000	     88.40340993	     -2.02452685	     35.43331126	     18.07242811	     86.79243441	      0.00000000	      0.00000000
     11.61666667	    -11.34031650	     -1.68068738	      1.86590957	     -0.36253382	      1.14644044	      0.04939035	     58.87701536	     -6.07322224	     -3.91053288	     56.22385541	      0.98129139	    -12.73458292	     -8.13034812	      0.00000000	     74.61468025	    -10.80494611	      7.76363996	    109.55501273	      1.91209568	      2.14348157	      2.42761426	      0.00000000	    -45.57907322	      1.37810495	      5.21738272	     89.83762476	    -13.91024291	     33.42625046	     20.48545066	     87.41271679	      0.00000000	      0.00000000	     88.40598564	     -2.01671765	     35.45223726	     18.10867222	     86.77805038	      0.00000000	      0.00000000
     11.62500000	    -11.02241676	     -1.66051960	      1.78228362	     -0.36207709	      1.14718263	      0.04939995	     57.31790068	     -5.94427214	     -4.07065011	     54.86465353	      0.95756885	    -13.55199663	     -8.08408301	      0.00000000	     75.33431163	    -10.86400470	      7.94976936	    110.59596263	      1.93026369	      3.19272969	      2.36945944	      0.00000000	    -45.93220175	      1.25225646	      5.27808645	     89.83907377	    -13.97373517	     33.57360191	     20.51554330	     87.34632069	      0.00000000	      0.00000000	     88.43292612	     -1.98822039	     35.46733833	     18.14362653	     86.76691523	      0.00000000	      0.00000000
     11.63333333	    -10.90830624	     -1.53133159	      1.80305823	     -0.36187005	      1.14749366	      0.04921531	     56.06068559	     -5.99350429	     -4.15679222	     53.66077780	      0.93655725	    -14.19926748	     -8.05632835	      0.00000000	     76.25731674	    -10.66533425	      8.05612121	    111.53764262	      1.94669910	      3.68241950	      2.41087152	      0.00000000	    -46.05647916	      1.11466077	      5.16475383	     89.83810473	    -13.97501583	     33.59249659	     20.44862236	     87.32258026	      0.00000000	      0.00000000	     88.44546692	     -1.97232322	     35.53271237	     18.17349530	     86.76895713	      0.00000000	      0.00000000
     11.64166667	    -10.88209666	     -1.23732874	      1.80486896	     -0.36174734	      1.14767079	      0.04897657	     54.97095770	     -6.08122314	     -3.93228166	     52.60710678	      0.91816722	    -14.30294254	     -8.06826517	      0.00000000	     77.22446503	    -10.43983917	      7.93161493	    112.34984045	      1.96087463	      3.98949122	      2.41558845	      0.00000000	    -46.10056400	      0.83492918	      4.94823630	     89.83564839	    -13.99583565	     33.57477259	     20.37086770	     87.31368404	      0.00000000	      0.00000000	     88.46911196	     -1.95738398	     35.54912480	     18.18029838	     86.75313479	      0.00000000	      0.00000000
